<svg width="40" height="40" viewBox="0 0 40 40" fill="none" xmlns="http://www.w3.org/2000/svg">
<rect width="40" height="40" rx="6" fill="white"/>
<path d="M20 2C16.7407 2 13.6956 4.74216 11.607 8.11944C9.76482 11.0985 8.69593 14.8541 9.93778 18.1501L8 19.12V34.2564H10.6667V20.7699L13.5879 19.3076L12.8471 18.0717C11.4324 15.7115 12.1111 12.376 13.8744 9.52463C15.6378 6.67309 18.5185 4.66949 20 4.66949C21.4815 4.66949 24.3622 6.67309 26.1256 9.52463C27.8889 12.3761 28.5676 15.7115 27.153 18.0717L26.4122 19.3076L29.3333 20.7699V34.2564H32V19.12L30.0622 18.1501C31.3041 14.8541 30.2351 11.0985 28.393 8.11944C26.3044 4.74216 23.2593 2 20 2ZM20.6667 6.03657V37H28.1481V21.5033L24.7079 19.7811C25.5984 18.3558 26.791 16.886 26.7328 15.1185C26.5579 11.4559 24.2404 8.0788 21.1014 6.23367C20.9627 6.16278 20.8167 6.09396 20.6667 6.03657ZM19.3333 6.06504C17.4869 6.76868 16.1565 8.40396 15.01 9.95508C13.7251 11.9071 12.8878 14.3339 13.5007 16.6641C13.805 17.621 14.3064 18.3526 14.7846 19.3695C15.0382 19.8425 14.9654 19.7156 13.1638 20.8465L11.8519 21.5033V37H19.3333V6.06504ZM13.4074 27.0636H14.7407C14.7407 27.4899 14.8766 27.7252 15.0725 27.8995C15.2684 28.0738 15.5556 28.1758 15.8519 28.1758C16.1481 28.1758 16.4353 28.0738 16.6312 27.8995C16.8271 27.7252 16.963 27.4899 16.963 27.0636H18.2963C18.2963 27.8236 17.9877 28.4782 17.517 28.8971C17.0461 29.316 16.4444 29.5106 15.8519 29.5106C15.2593 29.5106 14.6576 29.316 14.1867 28.8971C13.716 28.4782 13.4074 27.8236 13.4074 27.0636ZM21.7037 27.0636H23.037C23.037 27.4899 23.1729 27.7252 23.3688 27.8995C23.5647 28.0738 23.8519 28.1758 24.1481 28.1758C24.4444 28.1758 24.7316 28.0738 24.9275 27.8995C25.1234 27.7252 25.2593 27.4899 25.2593 27.0636H26.5926C26.5926 27.8236 26.284 28.4782 25.8133 28.8971C25.3424 29.316 24.7407 29.5106 24.1481 29.5106C23.5556 29.5106 22.9539 29.316 22.483 28.8971C22.0123 28.4782 21.7037 27.8236 21.7037 27.0636ZM8 35.5911V37H10.6667V35.5911H8ZM29.3333 35.5911V37H32V35.5911H29.3333Z" fill="#6715EB"/>
</svg>
