<svg width="338" height="250" viewBox="0 0 617 455" fill="none" xmlns="http://www.w3.org/2000/svg">
<g clip-path="url(#clip0_1150_26895)">
<path d="M300.156 52.1337C314.552 52.1337 326.222 40.4634 326.222 26.0675C326.222 11.6715 314.552 0.00128174 300.156 0.00128174C285.76 0.00128174 274.09 11.6715 274.09 26.0675C274.09 40.4634 285.76 52.1337 300.156 52.1337Z" fill="#FF6884"/>
<path d="M274.414 191.365L244.959 191.771L233.15 60.0967C232.863 56.9007 233.896 53.6692 235.982 51.2313L264.946 17.394C269 12.6576 275.894 11.8031 280.982 15.408L317.258 41.1103C320.218 43.2071 322.052 46.4854 322.289 50.1046L328.811 149.313L345.218 168.734L345.253 168.775L349.45 190.329L274.414 191.365V191.365Z" fill="#E6E6E6"/>
<path d="M268.244 48.0104L267.77 41.8989C267.645 40.2857 268.855 38.8714 270.468 38.7462L279.055 38.0798C280.668 37.9546 282.083 39.1652 282.208 40.7784L282.682 46.8899C282.807 48.5031 281.597 49.9174 279.984 50.0426L271.397 50.709C269.784 50.8342 268.369 49.6236 268.244 48.0104V48.0104Z" fill="#4F46E5"/>
<path d="M253.775 96.8575L252.021 74.2456C251.895 72.6325 253.106 71.2181 254.719 71.093L267.431 70.1064C269.044 69.9812 270.458 71.1919 270.584 72.805L272.338 95.4169C272.464 97.03 271.253 98.4443 269.64 98.5695L256.928 99.5561C255.315 99.6812 253.901 98.4706 253.775 96.8575V96.8575Z" fill="#3F3D56"/>
<path d="M286.617 147.557C285.076 147.622 283.741 146.471 283.576 144.938L281.237 123.132C281.137 122.202 281.474 121.303 282.16 120.667C282.847 120.031 283.769 119.765 284.689 119.934L285.345 120.056C286.65 120.298 287.634 121.391 287.736 122.714L289.419 144.398C289.481 145.199 289.222 145.971 288.689 146.572C288.179 147.147 287.485 147.491 286.724 147.55C286.688 147.553 286.653 147.555 286.617 147.557V147.557Z" fill="#3F3D56"/>
<path d="M259.711 146.611L257.952 123.934C257.827 122.333 258.981 120.951 260.579 120.787L272.111 119.609C273.71 119.462 275.155 120.615 275.327 122.216L277.774 145.124C277.859 145.919 277.624 146.696 277.113 147.311C276.602 147.927 275.881 148.299 275.083 148.361L262.864 149.31C261.251 149.435 259.837 148.224 259.711 146.611V146.611Z" fill="#3F3D56"/>
<path d="M329.204 156.807L339.509 172.203L341.954 190.228L349.2 190.126L345.06 168.868L328.609 149.395C327.506 151.801 327.732 154.608 329.204 156.807V156.807Z" fill="#CCCCCC"/>
<path d="M341.262 185.068L311.902 187.751L311.94 188.163L341.299 185.48L341.262 185.068Z" fill="#3F3D56"/>
<path d="M339.196 181.566L311.346 183.946L311.382 184.359L339.232 181.978L339.196 181.566Z" fill="#3F3D56"/>
<path d="M337.461 177.958L310.846 180.547L310.886 180.959L337.501 178.37L337.461 177.958Z" fill="#3F3D56"/>
<path d="M336.347 174.323L310.814 177.159L310.86 177.571L336.392 174.734L336.347 174.323Z" fill="#3F3D56"/>
<path d="M334.853 171.124L310.326 173.898L310.372 174.309L334.9 171.536L334.853 171.124Z" fill="#3F3D56"/>
<path d="M332.985 168.352L309.03 170.211L309.062 170.624L333.017 168.765L332.985 168.352Z" fill="#3F3D56"/>
<path d="M331.52 165.554L308.261 167.634L308.298 168.046L331.557 165.966L331.52 165.554Z" fill="#3F3D56"/>
<path d="M330.055 162.765L307.554 165.265L307.6 165.676L330.1 163.177L330.055 162.765Z" fill="#3F3D56"/>
<path d="M329.01 159.957L306.765 162.077L306.804 162.489L329.05 160.368L329.01 159.957Z" fill="#3F3D56"/>
<path d="M327.135 157.228L305.858 159.55L305.903 159.961L327.18 157.639L327.135 157.228Z" fill="#3F3D56"/>
<path d="M326.12 154.775L304.995 156.623L305.031 157.035L326.156 155.188L326.12 154.775Z" fill="#3F3D56"/>
<path d="M302.774 148.042L300.603 120.067C300.478 118.454 301.689 117.04 303.302 116.914L316.839 115.864C318.452 115.739 319.866 116.949 319.991 118.563L322.162 146.537C322.287 148.15 321.077 149.564 319.464 149.689L305.927 150.74C304.314 150.865 302.9 149.655 302.774 148.042V148.042Z" fill="#4F46E5"/>
<path d="M274.414 191.365L250.333 191.698L250.139 191.7L248.699 173.155C248.517 170.81 250.277 168.754 252.623 168.572L276.292 166.735C278.637 166.553 280.693 168.313 280.875 170.658L282.434 190.743L282.228 190.759L274.414 191.365V191.365Z" fill="#CCCCCC"/>
<path d="M300.487 97.175L298.828 75.8004C298.703 74.1873 299.913 72.773 301.527 72.6478L305.988 72.3015C307.601 72.1763 309.016 73.3869 309.141 75.0001L310.8 96.3746C310.925 97.9876 309.714 99.4019 308.101 99.5271L303.639 99.8733C302.026 99.9985 300.612 98.7879 300.487 97.175V97.175Z" fill="#3F3D56"/>
<path d="M312.294 190.5L309.648 172.446L304.591 155.409L303.192 150.745C300.961 149.468 298.231 151.293 298.558 153.842L298.816 155.857L303.873 172.894L306.519 190.948" fill="#CCCCCC"/>
<path d="M171.187 192.736L141.732 193.142L129.923 61.468C129.636 58.272 130.669 55.0405 132.756 52.6026L161.719 18.7653C165.773 14.0283 172.667 13.1746 177.755 16.7793L214.031 42.4816C216.991 44.5784 218.825 47.8567 219.063 51.4759L225.584 150.685L241.991 170.106L242.026 170.147L246.223 191.701L171.187 192.736V192.736Z" fill="#E6E6E6"/>
<path d="M165.017 49.3817L164.543 43.2702C164.418 41.657 165.628 40.2427 167.242 40.1175L175.828 39.4511C177.442 39.3259 178.856 40.5365 178.981 42.1497L179.455 48.2612C179.58 49.8744 178.37 51.2887 176.757 51.4139L168.17 52.0802C166.557 52.2054 165.143 50.9948 165.017 49.3817V49.3817Z" fill="#4F46E5"/>
<path d="M150.548 98.2288L148.794 75.6169C148.668 74.0038 149.879 72.5894 151.492 72.4642L164.204 71.4777C165.817 71.3525 167.231 72.5631 167.356 74.1763L169.111 96.7881C169.236 98.4013 168.026 99.8156 166.413 99.9408L153.701 100.927C152.088 101.053 150.674 99.8419 150.548 98.2288V98.2288Z" fill="#3F3D56"/>
<path d="M179.215 122.342C178.625 122.888 178.336 123.66 178.422 124.46L180.761 146.265C180.902 147.582 182.05 148.57 183.373 148.515C184.069 148.489 184.695 148.185 185.153 147.669C185.611 147.153 185.833 146.489 185.78 145.801L184.097 124.117C184.009 122.98 183.165 122.042 182.043 121.834L181.387 121.712C181.165 121.671 180.943 121.66 180.725 121.677C180.167 121.72 179.639 121.949 179.215 122.342V122.342Z" fill="#3F3D56"/>
<path d="M144.348 151.134C143.729 150.623 143.354 149.9 143.292 149.099L141.609 127.415C141.506 126.091 142.309 124.86 143.561 124.419L144.191 124.198C145.073 123.889 146.026 124.009 146.802 124.532C147.579 125.055 148.05 125.891 148.095 126.825L149.148 148.731C149.222 150.271 148.08 151.614 146.548 151.787C146.512 151.791 146.477 151.795 146.441 151.797C145.68 151.856 144.941 151.623 144.348 151.134H144.348Z" fill="#3F3D56"/>
<path d="M225.977 158.179L236.282 173.575L238.727 191.599L245.973 191.497L241.833 170.239L225.382 150.766C224.28 153.173 224.505 155.979 225.977 158.179H225.977Z" fill="#CCCCCC"/>
<path d="M238.035 186.44L208.676 189.122L208.713 189.535L238.073 186.852L238.035 186.44Z" fill="#3F3D56"/>
<path d="M235.97 182.937L208.12 185.318L208.155 185.73L236.005 183.35L235.97 182.937Z" fill="#3F3D56"/>
<path d="M234.235 179.329L207.619 181.919L207.659 182.331L234.275 179.741L234.235 179.329Z" fill="#3F3D56"/>
<path d="M233.12 175.694L207.587 178.53L207.633 178.942L233.166 176.105L233.12 175.694Z" fill="#3F3D56"/>
<path d="M231.627 172.496L207.099 175.269L207.146 175.68L231.673 172.907L231.627 172.496Z" fill="#3F3D56"/>
<path d="M229.758 169.724L205.803 171.583L205.835 171.995L229.79 170.136L229.758 169.724Z" fill="#3F3D56"/>
<path d="M228.294 166.925L205.034 169.005L205.071 169.417L228.33 167.337L228.294 166.925Z" fill="#3F3D56"/>
<path d="M226.828 164.137L204.328 166.636L204.373 167.048L226.874 164.548L226.828 164.137Z" fill="#3F3D56"/>
<path d="M225.783 161.328L203.538 163.448L203.577 163.86L225.823 161.74L225.783 161.328Z" fill="#3F3D56"/>
<path d="M223.908 158.599L202.631 160.921L202.676 161.332L223.953 159.011L223.908 158.599Z" fill="#3F3D56"/>
<path d="M222.893 156.147L201.768 157.994L201.804 158.406L222.929 156.559L222.893 156.147Z" fill="#3F3D56"/>
<path d="M199.548 149.413L197.377 121.438C197.251 119.825 198.462 118.411 200.075 118.286L213.612 117.235C215.225 117.11 216.639 118.32 216.764 119.934L218.936 147.908C219.061 149.521 217.85 150.936 216.237 151.061L202.7 152.111C201.087 152.236 199.673 151.026 199.548 149.413Z" fill="#4F46E5"/>
<path d="M171.187 192.736L147.106 193.069L146.912 193.072L145.472 174.527C145.29 172.181 147.051 170.125 149.396 169.943L173.065 168.106C175.41 167.924 177.466 169.684 177.648 172.029L179.207 192.114L179.001 192.13L171.187 192.736Z" fill="#CCCCCC"/>
<path d="M197.26 98.5461L195.601 77.1718C195.476 75.5586 196.687 74.1443 198.3 74.0191L202.761 73.6728C204.375 73.5476 205.789 74.7583 205.914 76.3714L207.573 97.7458C207.698 99.3589 206.488 100.773 204.874 100.898L200.413 101.245C198.8 101.37 197.385 100.159 197.26 98.5461V98.5461Z" fill="#3F3D56"/>
<path d="M209.068 191.871L206.422 173.817L201.364 156.78L199.965 152.116C197.734 150.84 195.005 152.664 195.331 155.214L195.589 157.228L200.646 174.265L203.293 192.32" fill="#CCCCCC"/>
<path d="M67.9599 194.107L38.5054 194.513L26.6962 62.8392C26.4097 59.6432 27.442 56.4118 29.5287 53.9739L58.4924 20.1365C62.5467 15.3998 69.4409 14.546 74.5279 18.1506L110.805 43.8529C113.764 45.9496 115.598 49.228 115.836 52.8472L122.357 152.056L138.765 171.477L138.799 171.518L142.997 193.072L67.9599 194.107L67.9599 194.107Z" fill="#E6E6E6"/>
<path d="M61.7903 50.753L61.316 44.6415C61.1908 43.0283 62.4014 41.614 64.0148 41.4888L72.6014 40.8224C74.2143 40.6973 75.6286 41.9079 75.7538 43.521L76.2281 49.6325C76.3533 51.2457 75.1427 52.66 73.5298 52.7852L64.9432 53.4516C63.3298 53.5768 61.9155 52.3662 61.7903 50.753V50.753Z" fill="#4F46E5"/>
<path d="M47.3216 99.6001L45.5668 76.9883C45.4416 75.3751 46.6522 73.9608 48.2655 73.8356L60.9772 72.849C62.5901 72.7239 64.0044 73.9345 64.1296 75.5476L65.8845 98.1595C66.0097 99.7726 64.7991 101.187 63.1861 101.312L50.4745 102.299C48.8611 102.424 47.4468 101.213 47.3216 99.6001V99.6001Z" fill="#3F3D56"/>
<path d="M40.4028 125.986L41.0323 125.765C42.7544 125.159 44.5736 126.383 44.6613 128.207L45.7147 150.112C45.7837 151.548 44.7261 152.791 43.2975 152.953C41.7631 153.127 40.3904 151.994 40.2709 150.454L38.5881 128.77C38.4925 127.538 39.2371 126.396 40.4028 125.986V125.986V125.986Z" fill="#3F3D56"/>
<path d="M53.2579 149.354L51.4979 126.676C51.3737 125.075 52.5276 123.693 54.1254 123.53L65.6571 122.352C67.2648 122.201 68.7021 123.357 68.8734 124.959L71.3207 147.866C71.4055 148.662 71.1708 149.439 70.6592 150.054C70.1481 150.669 69.4273 151.042 68.6297 151.104L56.4107 152.052C54.7973 152.177 53.383 150.967 53.2579 149.354H53.2579Z" fill="#3F3D56"/>
<path d="M122.75 159.55L133.055 174.946L135.5 192.97L142.746 192.869L138.606 171.61L122.155 152.137C121.053 154.544 121.278 157.35 122.75 159.55H122.75Z" fill="#CCCCCC"/>
<path d="M134.808 187.811L105.449 190.494L105.486 190.906L134.846 188.223L134.808 187.811Z" fill="#3F3D56"/>
<path d="M132.743 184.309L104.893 186.689L104.928 187.101L132.778 184.721L132.743 184.309Z" fill="#3F3D56"/>
<path d="M131.008 180.701L104.392 183.29L104.432 183.702L131.048 181.113L131.008 180.701Z" fill="#3F3D56"/>
<path d="M129.893 177.065L104.361 179.902L104.406 180.313L129.939 177.477L129.893 177.065Z" fill="#3F3D56"/>
<path d="M128.4 173.867L103.872 176.64L103.919 177.052L128.446 174.278L128.4 173.867Z" fill="#3F3D56"/>
<path d="M126.532 171.095L102.577 172.954L102.609 173.367L126.564 171.508L126.532 171.095Z" fill="#3F3D56"/>
<path d="M125.067 168.297L101.808 170.376L101.844 170.788L125.104 168.709L125.067 168.297Z" fill="#3F3D56"/>
<path d="M123.601 165.508L101.101 168.008L101.146 168.419L123.647 165.919L123.601 165.508Z" fill="#3F3D56"/>
<path d="M122.556 162.699L100.311 164.819L100.35 165.231L122.596 163.111L122.556 162.699Z" fill="#3F3D56"/>
<path d="M120.682 159.97L99.4041 162.292L99.449 162.704L120.726 160.382L120.682 159.97Z" fill="#3F3D56"/>
<path d="M119.666 157.518L98.5408 159.365L98.5768 159.777L119.702 157.93L119.666 157.518Z" fill="#3F3D56"/>
<path d="M96.3206 150.784L94.1495 122.81C94.0243 121.196 95.2349 119.782 96.8483 119.657L110.385 118.606C111.998 118.481 113.412 119.692 113.537 121.305L115.708 149.28C115.834 150.893 114.623 152.307 113.01 152.432L99.4734 153.483C97.86 153.608 96.4457 152.397 96.3205 150.784H96.3206Z" fill="#4F46E5"/>
<path d="M67.9598 194.107L43.8788 194.441L43.6848 194.443L42.2456 175.898C42.0636 173.553 43.8237 171.496 46.1691 171.314L69.838 169.477C72.1833 169.295 74.2393 171.055 74.4213 173.401L75.98 193.485L75.7737 193.501L67.9598 194.107V194.107Z" fill="#CCCCCC"/>
<path d="M94.0329 99.9174L92.3741 78.5431C92.2489 76.9299 93.4595 75.5156 95.0729 75.3904L99.5344 75.0441C101.147 74.9189 102.562 76.1295 102.687 77.7427L104.346 99.117C104.471 100.73 103.26 102.145 101.647 102.27L97.1858 102.616C95.5724 102.741 94.1581 101.531 94.0329 99.9174V99.9174Z" fill="#3F3D56"/>
<path d="M105.841 193.243L103.195 175.188L98.1376 158.151L96.7381 153.487C94.5071 152.211 91.7778 154.035 92.1044 156.585L92.3625 158.599L97.4196 175.637L100.066 193.691" fill="#CCCCCC"/>
<path d="M377.214 189.777L0 194.667L0.0107274 195.494L377.225 190.604L377.214 189.777Z" fill="#CCCCCC"/>
<path d="M125.157 362.737C124.313 361.313 120.66 362.838 119.989 361.546C119.32 360.258 122.713 358.297 124.652 353.816C125.002 353.008 127.205 347.915 125.574 346.344C122.482 343.366 108.335 355.657 103.383 351.635C102.297 350.752 101.538 348.99 98.2492 346.129C96.9409 344.991 96.1498 344.477 95.3842 344.668C94.2978 344.939 94.2118 346.393 93.0468 349.252C91.2998 353.539 90.2666 353.28 89.2487 356.701C88.4931 359.24 88.6657 360.716 87.7765 361.004C86.5183 361.411 85.3601 358.718 83.7655 358.959C82.1383 359.205 81.1546 362.341 80.8438 364.689C80.2607 369.095 81.8788 372.002 82.7757 375.059C83.7503 378.382 84.3287 383.434 82.078 390.587L59.8008 453.353C64.7189 440.474 78.9592 405.168 84.943 392.048C86.6704 388.26 88.5777 384.419 92.4939 382.903C96.2644 381.443 101.443 382.314 108.044 380.724C108.815 380.538 110.955 379.994 111.224 378.735C111.447 377.695 110.188 377.114 110.382 376.14C110.641 374.833 113.116 374.817 116.157 373.309C118.301 372.246 119.637 370.981 120.786 369.894C121.133 369.566 126.281 364.632 125.157 362.737H125.157V362.737Z" fill="#F2F2F2"/>
<path d="M37.5122 395.78C36.5698 395.783 36.2641 398.016 35.4362 397.973C34.6113 397.93 34.6278 395.698 32.9879 393.453C32.6922 393.049 30.8286 390.498 29.5868 390.845C27.2329 391.503 29.1833 401.993 25.7806 403.263C25.0339 403.542 23.95 403.406 21.5969 404.194C20.6608 404.508 20.1804 404.748 20.0533 405.179C19.873 405.79 20.5617 406.252 21.6287 407.649C23.2289 409.743 22.8037 410.176 24.1888 411.662C25.2171 412.766 25.9915 413.107 25.876 413.626C25.7128 414.361 24.0567 414.153 23.715 415.005C23.3663 415.875 24.6216 417.262 25.6843 418.092C27.6786 419.65 29.5724 419.694 31.3316 420.136C33.2435 420.617 35.8902 421.79 38.7514 424.959L63.1297 454.003C58.2275 447.873 45.0079 430.697 40.295 423.974C38.9345 422.034 37.5993 419.989 37.9852 417.629C38.3566 415.358 40.2785 413.068 41.4027 409.369C41.534 408.937 41.8841 407.73 41.3442 407.234C40.8978 406.825 40.2497 407.275 39.8272 406.899C39.2606 406.394 39.9668 405.175 40.1041 403.247C40.201 401.888 39.9658 400.868 39.7636 399.99C39.7026 399.725 38.7666 395.775 37.5122 395.78V395.78H37.5122V395.78Z" fill="#F2F2F2"/>
<path d="M56.3119 400L55.7441 394.932L56.0035 394.547C57.2039 392.771 57.8157 391.036 57.823 389.389C57.8242 389.127 57.812 388.865 57.7998 388.598C57.7508 387.541 57.6897 386.227 58.3749 384.695C58.7591 383.841 59.8383 381.864 61.4608 382.108C61.8976 382.169 62.228 382.37 62.4789 382.605C62.5156 382.546 62.5535 382.488 62.5939 382.424C63.0992 381.653 63.4993 381.323 63.8848 381.005C64.1809 380.76 64.4868 380.508 64.9664 379.911C65.1769 379.649 65.3409 379.419 65.4791 379.225C65.8988 378.641 66.447 377.943 67.4136 377.955C68.4464 378.004 68.9872 378.858 69.3457 379.424C69.9857 380.432 70.2757 381.159 70.4678 381.641C70.5375 381.817 70.617 382.015 70.6574 382.076C70.9902 382.566 73.6957 382.108 74.7149 381.942C77.0043 381.56 78.9853 381.23 79.8014 382.673C80.3863 383.706 79.9519 385.072 78.4714 386.841C78.0101 387.392 77.5194 387.81 77.0838 388.138C77.4447 388.353 77.7678 388.684 77.8987 389.203C78.2071 390.431 77.1511 391.662 74.7614 392.866C74.168 393.167 73.3689 393.569 72.2493 393.762C71.722 393.852 71.2472 393.874 70.841 393.887C70.8324 394.122 70.7774 394.376 70.6342 394.638C70.2145 395.409 69.3409 395.776 68.0243 395.688C66.5755 395.612 65.3825 395.335 64.3302 395.093C63.4113 394.883 62.6196 394.704 61.998 394.746C60.8454 394.839 59.957 395.761 58.9145 396.958L56.3119 400H56.3119V400Z" fill="#F2F2F2"/>
<path d="M58.9455 369.824L54.187 371.659L53.7496 371.505C51.7266 370.795 49.8931 370.643 48.2981 371.054C48.0445 371.119 47.7943 371.197 47.5394 371.277C46.5292 371.592 45.2735 371.985 43.6179 371.71C42.6943 371.555 40.5079 371.013 40.333 369.381C40.2814 368.943 40.3917 368.573 40.5553 368.271C40.4892 368.25 40.4228 368.228 40.351 368.205C39.4772 367.912 39.0561 367.609 38.6506 367.317C38.3388 367.092 38.0173 366.86 37.3181 366.548C37.0114 366.411 36.7473 366.311 36.5252 366.226C35.853 365.968 35.0393 365.615 34.806 364.677C34.5914 363.665 35.2804 362.926 35.7362 362.435C36.5492 361.561 37.1787 361.096 37.5963 360.788C37.749 360.675 37.9206 360.548 37.9696 360.494C38.3586 360.048 37.2297 357.547 36.8102 356.603C35.8602 354.485 35.0382 352.653 36.2278 351.497C37.0784 350.67 38.5094 350.743 40.5965 351.727C41.2461 352.033 41.7753 352.402 42.203 352.74C42.3198 352.336 42.5574 351.94 43.0261 351.682C44.1362 351.072 45.5947 351.781 47.3655 353.787C47.8072 354.285 48.3981 354.956 48.8691 355.99C49.0904 356.477 49.2322 356.931 49.3471 357.32C49.5765 357.269 49.8366 357.258 50.1262 357.33C50.9783 357.54 51.555 358.292 51.8038 359.588C52.0979 361.009 52.133 362.233 52.1655 363.312C52.1951 364.255 52.223 365.066 52.421 365.656C52.8033 366.748 53.921 367.373 55.343 368.078L58.9456 369.824L58.9455 369.824V369.824Z" fill="#F2F2F2"/>
<path d="M56.3119 354.893L55.7441 349.825L56.0035 349.44C57.2039 347.664 57.8157 345.929 57.823 344.282C57.8242 344.02 57.812 343.758 57.7998 343.491C57.7508 342.434 57.6897 341.12 58.3749 339.588C58.7591 338.734 59.8383 336.757 61.4608 337.001C61.8976 337.062 62.228 337.263 62.4789 337.498C62.5156 337.439 62.5535 337.381 62.5939 337.317C63.0992 336.546 63.4993 336.216 63.8848 335.898C64.1809 335.653 64.4868 335.401 64.9664 334.804C65.1769 334.542 65.3409 334.312 65.4791 334.118C65.8988 333.534 66.447 332.836 67.4136 332.848C68.4464 332.897 68.9872 333.751 69.3457 334.317C69.9857 335.325 70.2757 336.052 70.4678 336.534C70.5375 336.71 70.617 336.908 70.6574 336.969C70.9902 337.459 73.6957 337.001 74.7149 336.835C77.0043 336.453 78.9853 336.123 79.8014 337.567C80.3863 338.599 79.9519 339.965 78.4714 341.734C78.0101 342.285 77.5194 342.703 77.0838 343.031C77.4447 343.247 77.7678 343.577 77.8987 344.096C78.2071 345.324 77.1511 346.555 74.7614 347.759C74.168 348.06 73.3689 348.462 72.2493 348.655C71.722 348.745 71.2472 348.767 70.841 348.78C70.8324 349.015 70.7774 349.269 70.6342 349.531C70.2145 350.302 69.3409 350.669 68.0243 350.581C66.5755 350.505 65.3825 350.228 64.3302 349.986C63.4113 349.776 62.6196 349.597 61.998 349.639C60.8454 349.732 59.957 350.654 58.9145 351.851L56.3119 354.893H56.3119V354.893Z" fill="#F2F2F2"/>
<path d="M61.4974 453.271L60.4353 452.605L60.1784 451.379L60.4353 452.605L59.197 452.747C59.1774 452.632 59.1101 452.368 59.0086 451.954C58.4543 449.688 56.7645 442.792 55.3549 431.931C54.3711 424.349 53.8144 416.555 53.6994 408.761C53.5844 400.954 53.9539 395.044 54.25 390.294C54.4739 386.711 54.7456 383.3 55.0123 379.977C55.722 371.098 56.3913 362.712 55.8933 353.427C55.7832 351.354 55.5519 347.04 53.0313 342.449C51.5691 339.786 49.555 337.422 47.0442 335.425L48.6055 333.463C51.3769 335.67 53.6051 338.289 55.2289 341.245C58.0236 346.335 58.2757 351.036 58.3968 353.295C58.9033 362.744 58.2267 371.211 57.5097 380.175C57.2454 383.486 56.9737 386.883 56.751 390.451C56.4574 395.157 56.0915 401.015 56.2053 408.722C56.3179 416.423 56.8685 424.122 57.8388 431.608C59.2313 442.332 60.8966 449.125 61.4436 451.357C61.7348 452.549 61.796 452.798 61.4974 453.271V453.271H61.4974V453.271Z" fill="#F2F2F2"/>
<path d="M42.4484 339.407C42.3456 339.407 42.2416 339.404 42.1364 339.397C40.0024 339.282 38.0263 338.005 36.2619 335.601C35.4347 334.471 35.0114 333.181 34.1671 330.609C34.0361 330.213 33.3999 328.201 33.0132 325.433C32.7599 323.625 32.7917 322.869 33.1502 322.201C33.5479 321.457 34.1915 320.938 34.9159 320.588C34.8841 320.348 34.9098 320.101 35.0138 319.849C35.4408 318.804 36.5763 318.941 37.1906 319.007C37.5014 319.046 37.8893 319.098 38.3078 319.075C38.966 319.044 39.3197 318.848 39.8556 318.554C40.3683 318.273 41.0058 317.923 41.9516 317.73C43.8164 317.34 45.379 317.869 45.8941 318.043C48.6044 318.946 49.9405 321.053 51.4872 323.493C51.7955 323.982 52.8539 325.764 53.5526 328.206C54.0567 329.968 53.9858 330.751 53.834 331.333C53.5257 332.53 52.7976 333.215 50.9488 334.728C49.0179 336.311 48.0488 337.104 47.2168 337.586C45.2798 338.705 44.0636 339.407 42.4484 339.407V339.407H42.4484Z" fill="#F2F2F2"/>
<path d="M434.34 186.597C434.34 186.597 403.001 190.366 408.288 165.588C413.574 140.809 443.546 95.0422 443.546 95.0422L460.555 104.581L441.028 150.738L449.434 157.37L434.34 186.597V186.597L434.34 186.597Z" fill="#A0616A"/>
<path d="M537.039 156.431L532.623 192.751L421.965 192.209L444.19 153.584L537.039 156.431Z" fill="#4F46E5"/>
<path d="M471.279 96.9721C478.051 87.5144 478.594 76.3057 472.492 71.9367C466.39 67.5677 455.954 71.6929 449.182 81.1505C442.41 90.6082 441.867 101.817 447.969 106.186C454.071 110.555 464.507 106.43 471.279 96.9721Z" fill="#A0616A"/>
<path d="M533.193 294.903H526.399V452.527H533.193V294.903Z" fill="#3F3D56"/>
<path d="M500.581 294.903H493.787V452.527H500.581V294.903Z" fill="#3F3D56"/>
<path d="M317.819 195.708H311.024V452.527H317.819V195.708Z" fill="#E6E6E6"/>
<path d="M427.204 294.903H420.41V452.527H427.204V294.903Z" fill="#3F3D56"/>
<path d="M401.204 294.903H394.41V452.527H401.204V294.903Z" fill="#3F3D56"/>
<path d="M520.284 291.506H389.082L363.914 327.205L494.466 334.988L520.284 291.506Z" fill="#3F3D56"/>
<path d="M280.04 169.363L280.636 143.473L201.451 149.564L201.046 167.107L280.04 169.363Z" fill="#A0616A"/>
<path d="M226.448 146.471L222.661 155.582L217.221 155.756C217.221 155.756 223.59 157.706 225.359 169.279L220.133 170.845C220.133 170.845 215.114 175.528 205.732 175.073L180.577 172.969L180.48 164.2L197.866 162.191C197.866 162.191 201.74 159.642 182.563 149.164C182.563 149.164 176.21 145.279 181.923 126.095C182.709 123.459 185.081 121.565 187.831 121.505C189.349 121.473 190.771 122.018 191.339 123.903C192.785 128.702 191.322 133.487 195.294 136.483C199.266 139.478 226.448 146.471 226.448 146.471L226.448 146.471V146.471Z" fill="#2F2E41"/>
<path d="M510.465 268.342C510.465 268.342 483.143 314.811 421.32 306.436C406.608 304.443 393.664 295.696 386.29 282.811C372.036 257.905 350.393 214.295 357.41 189.602L252.848 169.645L244.609 144.252L357.772 129.552C367.782 128.251 377.587 133.119 382.602 141.878L437.727 238.147L454.16 239.941L510.465 268.342V268.342V268.342Z" fill="#2F2E41"/>
<path d="M282.104 179.961L280.615 154.108L202.177 166.549L203.184 184.068L282.104 179.961Z" fill="#A0616A"/>
<path d="M226.844 161.455L223.802 170.842L218.395 171.452C218.395 171.452 224.899 172.884 227.594 184.276L222.511 186.258C222.511 186.258 217.885 191.329 208.497 191.631L183.254 191.558L182.452 182.825L199.62 179.423C199.62 179.423 203.276 176.571 183.318 167.67C183.318 167.67 176.673 164.309 180.825 144.728C181.395 142.036 183.607 139.958 186.344 139.677C187.854 139.522 189.316 139.952 190.034 141.785C191.86 146.452 190.788 151.339 194.988 154.005C199.188 156.672 226.844 161.455 226.844 161.455L226.844 161.455H226.844Z" fill="#2F2E41"/>
<path d="M519.746 260.081C519.746 260.081 496.251 308.598 433.954 305.224C419.129 304.421 405.524 296.744 397.137 284.493C380.926 260.815 355.844 219.088 360.852 193.91L255.023 182.431L244.768 157.782L356.381 134.025C366.254 131.924 376.419 135.987 382.123 144.314L444.814 235.836L461.338 236.302L519.746 260.081H519.746V260.081Z" fill="#2F2E41"/>
<path d="M448.127 55.2076L442.692 59.2841L471.227 98.6902L476.663 97.3314L448.127 55.2076Z" fill="#3F3D56"/>
<path d="M522.323 142.714L553.576 141.355L567.164 202.502C567.164 202.502 538.629 309.85 504.658 305.773C504.658 305.773 483.596 290.147 483.596 284.711C483.596 279.276 455.061 265.688 455.061 265.688L448.266 242.588L468.649 211.335C468.649 211.335 476.802 186.876 503.978 173.287L522.323 142.714L522.323 142.714V142.714Z" fill="#4F46E5"/>
<path d="M343.636 190.273H65.7556V197.067H201.639V452.527H208.433V197.067H343.636V190.273Z" fill="#E6E6E6"/>
<path d="M538.629 137.278C558.891 137.278 575.317 120.852 575.317 100.59C575.317 80.3274 558.891 63.9014 538.629 63.9014C518.366 63.9014 501.94 80.3274 501.94 100.59C501.94 120.852 518.366 137.278 538.629 137.278Z" fill="#A0616A"/>
<path d="M410.706 147.469L385.081 157.661L435.357 224.243L453.022 210.655L410.706 147.469Z" fill="#E6E6E6"/>
<path d="M510.772 275.2C510.772 275.2 501.261 305.297 480.878 290.248C460.496 275.2 431.195 228.999 431.195 228.999L446.907 217.449L480.878 254.298L490.39 249.382L510.772 275.2L510.772 275.2V275.2Z" fill="#A0616A"/>
<path d="M525.72 169.211L556.973 188.234L510.773 288.788L480.878 248.023L525.72 169.211Z" fill="#4F46E5"/>
<path d="M443.171 229.575C449.67 225.822 450.224 214.614 444.408 204.54C438.592 194.467 428.608 189.342 422.109 193.094C415.61 196.847 415.056 208.055 420.872 218.129C426.688 228.202 436.672 233.327 443.171 229.575Z" fill="#A0616A"/>
<path d="M542.641 211.672C552.056 180.803 562.161 171.034 572.785 177.15C580.871 181.806 583.305 192.402 578.566 200.44C566.487 220.927 541.596 267.868 546.781 298.979C546.781 298.979 554.934 342.462 489.711 342.462C424.487 342.462 361.98 327.514 361.98 327.514L395.951 322.079L473.205 327.597C490.855 328.858 505.731 313.756 503.373 296.218C503.295 295.639 503.203 295.054 503.096 294.462C499.222 273.161 542.641 211.672 542.641 211.672V211.672V211.672Z" fill="#3F3D56"/>
<path d="M524.877 85.381C521.88 93.7728 528.466 102.487 537.357 101.894L537.569 101.88C543.546 109.351 543.711 119.919 537.97 127.573C537.499 137.439 539.044 147.297 542.512 156.544L552.255 182.527L567.255 175.527L574.374 194.527L616.256 172.952L590.873 115.84L583.127 84.8558C577.616 62.8119 555.13 49.5432 533.169 55.3766L516.32 59.852C503.009 63.3878 495.347 77.3242 499.495 90.4575V90.4575L524.878 85.3809" fill="#2F2E41"/>
</g>
<defs>
<clipPath id="clip0_1150_26895">
<rect width="616.256" height="454.003" fill="white"/>
</clipPath>
</defs>
</svg>
