<svg width="412" height="3  50" viewBox="0 0 819 697" fill="none" xmlns="http://www.w3.org/2000/svg">
<path d="M186.855 673.537L198.496 677.384L218.876 634.316L201.695 628.638L186.855 673.537Z" fill="#FFB8B8"/>
<path d="M207.909 676.807L185.46 669.386L180.788 683.521L217.372 695.613C217.986 693.757 218.228 691.798 218.084 689.848C217.941 687.899 217.415 685.996 216.536 684.25C215.657 682.504 214.443 680.947 212.963 679.67C211.483 678.393 209.766 677.42 207.909 676.807V676.807Z" fill="#2F2E41"/>
<path d="M263.649 684.229L275.909 684.228L281.741 636.94L263.647 636.941L263.649 684.229Z" fill="#FFB8B8"/>
<path d="M284.666 680.725H261.022V695.612H299.553C299.553 693.657 299.168 691.722 298.42 689.915C297.672 688.109 296.575 686.468 295.193 685.086C293.81 683.703 292.169 682.607 290.363 681.859C288.557 681.111 286.621 680.725 284.666 680.725V680.725Z" fill="#2F2E41"/>
<path d="M274.981 508.69L275.606 511.456C284.053 548.866 287.061 603.297 284.538 641.566L282.589 671.127C282.522 672.14 282.073 673.09 281.332 673.783C280.59 674.477 279.613 674.863 278.598 674.863H263.9C262.92 674.863 261.974 674.504 261.242 673.853C260.509 673.201 260.042 672.304 259.927 671.331L248.52 574.366C248.413 573.457 247.997 572.613 247.343 571.973C246.689 571.333 245.835 570.938 244.924 570.851C244.013 570.765 243.1 570.994 242.337 571.499C241.575 572.005 241.008 572.756 240.733 573.629L211.167 661.253C210.924 662.022 210.455 662.699 209.82 663.197C209.185 663.694 208.415 663.988 207.61 664.04L185.159 665.488C184.511 665.53 183.863 665.413 183.27 665.148C182.677 664.884 182.157 664.478 181.756 663.968C181.355 663.457 181.084 662.856 180.967 662.217C180.85 661.579 180.89 660.921 181.084 660.301L194.599 623.143C205.041 589.795 210.654 539.124 211.267 504.185C211.277 503.634 211.4 503.091 211.63 502.589C211.859 502.088 212.19 501.64 212.601 501.272C213.013 500.905 213.495 500.627 214.019 500.455C214.543 500.283 215.097 500.221 215.646 500.273L271.458 505.589C272.297 505.669 273.09 506.012 273.722 506.568C274.355 507.125 274.795 507.868 274.981 508.69Z" fill="#2F2E41"/>
<path d="M242.299 353.358C228.735 353.358 217.738 342.361 217.738 328.797C217.738 315.232 228.735 304.236 242.299 304.236C255.864 304.236 266.86 315.232 266.86 328.797C266.86 342.361 255.864 353.358 242.299 353.358Z" fill="#A0616A"/>
<path d="M258.422 516.737C263.314 516.726 268.201 516.469 273.067 515.964C274.63 515.794 276.064 515.019 277.064 513.806C278.063 512.592 278.548 511.035 278.415 509.469L270.041 428.563C268.021 405.678 264.901 383.587 249.116 364.878C248.58 364.244 247.918 363.727 247.173 363.361C246.427 362.995 245.614 362.788 244.785 362.751L244.191 362.729C237.964 362.469 235.095 362.695 234.288 363.504L229.945 367.783C203.461 387.369 202.361 511.445 208.886 509C210.148 508.529 225.22 509.002 226.269 509.718C234.777 515.517 248.45 516.736 258.422 516.737Z" fill="#4F46E5"/>
<path d="M354.788 471.828C354.162 470.497 353.253 469.32 352.124 468.379C350.994 467.438 349.672 466.756 348.251 466.381C346.829 466.006 345.343 465.948 343.896 466.21C342.45 466.471 341.078 467.047 339.878 467.896L310.814 447.105L310.109 465.661L337.817 482.56C339.377 484.482 341.588 485.764 344.03 486.164C346.473 486.565 348.977 486.055 351.069 484.732C353.161 483.409 354.695 481.365 355.38 478.987C356.066 476.608 355.855 474.061 354.788 471.828Z" fill="#A0616A"/>
<path d="M325.923 477.314L335.767 459.985L246.1 395.331C244.076 393.872 241.774 392.846 239.336 392.317C236.898 391.788 234.377 391.767 231.931 392.256C229.485 392.746 227.166 393.734 225.119 395.16C223.072 396.586 221.341 398.419 220.035 400.544C218.728 402.669 217.874 405.04 217.525 407.51C217.176 409.98 217.341 412.496 218.008 414.9C218.675 417.303 219.831 419.544 221.403 421.48C222.976 423.417 224.93 425.009 227.146 426.156L325.923 477.314Z" fill="#4F46E5"/>
<path d="M231.264 349.562C230.433 350.382 229.333 350.875 228.167 350.95C227.002 351.024 225.848 350.676 224.918 349.969C219.13 345.678 214.048 340.337 211.041 333.822C207.595 326.357 207.21 317.197 211.365 310.102C214.877 304.104 221.079 300.234 227.261 297.056C229.661 295.701 232.246 294.705 234.935 294.098C237.652 293.499 240.495 293.957 242.886 295.381C244.056 296.114 244.977 297.183 245.53 298.448C246.084 299.713 246.243 301.115 245.987 302.472C248.956 299.084 252.759 296.531 257.019 295.066C259.701 294.017 262.638 293.804 265.444 294.456C269.367 295.568 272.23 299.053 273.797 302.818C275.063 305.681 275.501 308.843 275.059 311.943C274.827 313.485 274.273 314.962 273.434 316.277C272.595 317.592 271.489 318.716 270.188 319.577C266.945 321.584 262.808 321.439 259.083 320.619C255.359 319.8 251.753 318.374 247.957 318.013C244.16 317.653 239.933 318.599 237.622 321.633C235.995 323.77 235.577 326.562 235.212 329.223L233.312 343.062C233.157 345.064 232.645 347.022 231.802 348.844C231.656 349.107 231.475 349.348 231.264 349.562V349.562Z" fill="#2F2E41"/>
<path d="M178.271 521.653C179.463 520.792 180.451 519.68 181.167 518.396C181.883 517.112 182.308 515.686 182.413 514.22C182.518 512.754 182.3 511.282 181.775 509.909C181.249 508.536 180.43 507.295 179.373 506.273L194.419 473.86L176.054 476.605L164.581 506.964C162.982 508.853 162.131 511.263 162.19 513.738C162.25 516.212 163.214 518.579 164.902 520.389C166.589 522.2 168.883 523.328 171.347 523.561C173.811 523.794 176.275 523.115 178.271 521.653V521.653Z" fill="#A0616A"/>
<path d="M168.21 487.222L185.539 497.066L250.193 407.399C251.652 405.375 252.678 403.073 253.207 400.635C253.736 398.197 253.757 395.676 253.267 393.23C252.778 390.784 251.79 388.465 250.364 386.418C248.938 384.371 247.105 382.64 244.98 381.333C242.855 380.027 240.483 379.172 238.013 378.824C235.543 378.475 233.028 378.639 230.624 379.307C228.22 379.974 225.98 381.13 224.043 382.702C222.106 384.274 220.515 386.229 219.367 388.444L168.21 487.222Z" fill="#4F46E5"/>
<path d="M326.046 165.283H329.868V60.5937C329.868 44.5233 336.252 29.111 347.615 17.7475C358.979 6.38397 374.391 7.95649e-06 390.461 0H612.267C628.338 0 643.75 6.38396 655.113 17.7475C666.477 29.111 672.861 44.5233 672.861 60.5937V634.937C672.861 651.008 666.477 666.42 655.113 677.783C643.75 689.147 628.338 695.531 612.267 695.531H390.461C374.391 695.531 358.979 689.147 347.616 677.783C336.252 666.42 329.869 651.007 329.869 634.937V239.803H326.047L326.046 165.283Z" fill="#E6E6E6"/>
<path d="M388.016 15.7585H416.967C415.635 19.023 415.127 22.5649 415.487 26.0721C415.847 29.5793 417.064 32.9442 419.031 35.8702C420.997 38.7963 423.653 41.1938 426.765 42.8515C429.877 44.5091 433.348 45.3761 436.874 45.3759H563.944C567.469 45.3758 570.941 44.5086 574.052 42.8508C577.163 41.193 579.819 38.7955 581.786 35.8695C583.752 32.9434 584.969 29.5787 585.329 26.0716C585.689 22.5646 585.18 19.0229 583.849 15.7585H610.891C622.892 15.7585 634.402 20.526 642.888 29.0121C651.374 37.4983 656.141 49.008 656.141 61.0093V634.519C656.141 646.52 651.374 658.03 642.888 666.516C634.402 675.002 622.892 679.77 610.891 679.77H388.016C376.015 679.77 364.505 675.002 356.019 666.516C347.533 658.03 342.766 646.52 342.766 634.519V61.0084C342.766 49.0073 347.533 37.4978 356.02 29.0118C364.506 20.5258 376.015 15.7585 388.016 15.7585H388.016Z" fill="white"/>
<path d="M499.454 355C520.221 355 540.521 348.842 557.788 337.304C575.056 325.767 588.514 309.368 596.461 290.182C604.408 270.996 606.487 249.884 602.436 229.516C598.385 209.147 588.384 190.438 573.7 175.754C559.015 161.069 540.306 151.069 519.938 147.018C499.57 142.966 478.458 145.045 459.272 152.993C440.086 160.94 423.687 174.398 412.149 191.665C400.612 208.932 394.454 229.233 394.454 250C394.485 277.838 405.558 304.527 425.242 324.211C444.927 343.896 471.616 354.968 499.454 355V355ZM499.454 147C519.825 147 539.739 153.041 556.677 164.359C573.616 175.676 586.817 191.763 594.613 210.584C602.409 229.404 604.449 250.114 600.474 270.094C596.5 290.074 586.69 308.427 572.286 322.832C557.881 337.237 539.528 347.047 519.548 351.021C499.568 354.995 478.858 352.955 460.037 345.16C441.216 337.364 425.13 324.162 413.812 307.224C402.494 290.285 396.454 270.371 396.454 250C396.484 222.692 407.346 196.512 426.656 177.202C445.965 157.893 472.146 147.031 499.454 147V147Z" fill="#3F3D56"/>
<path d="M460.889 219.498C451.896 211.899 446.434 199.896 447.867 188.21C449.299 176.524 458.171 165.782 469.68 163.3C481.189 160.819 494.308 167.688 497.803 178.93C499.727 157.256 501.944 134.673 513.467 116.215C523.901 99.5019 541.974 87.5431 561.56 85.4036C581.147 83.2642 601.768 91.3446 613.984 106.804C626.199 122.263 629.19 144.738 620.635 162.486C614.332 175.561 602.721 185.291 590.555 193.208C551.743 218.463 503.596 226.996 457.783 220.254L460.889 219.498Z" fill="#E6E6E6"/>
<path d="M594.615 91.7925C578.454 104.956 563.628 119.678 550.351 135.747C529.573 160.807 512.759 188.905 500.495 219.061C499.598 221.261 503.17 222.218 504.058 220.043C524.123 171.033 556.157 127.837 597.227 94.4048C599.072 92.903 596.444 90.3031 594.615 91.7925V91.7925Z" fill="white"/>
<path d="M589.116 458C583.041 458 578.116 453.075 578.116 447C578.116 440.925 583.041 436 589.116 436C595.191 436 600.116 440.925 600.116 447C600.116 453.075 595.191 458 589.116 458Z" fill="#3F3D56"/>
<path d="M406.791 455H546.791C548.913 455 550.948 454.157 552.448 452.657C553.948 451.157 554.791 449.122 554.791 447C554.791 444.878 553.948 442.843 552.448 441.343C550.948 439.843 548.913 439 546.791 439H406.791C404.669 439 402.634 439.843 401.134 441.343C399.634 442.843 398.791 444.878 398.791 447C398.791 449.122 399.634 451.157 401.134 452.657C402.634 454.157 404.669 455 406.791 455Z" fill="#CCCCCC"/>
<path d="M450.212 455.096H547.37C549.517 455.096 551.577 454.243 553.095 452.725C554.613 451.207 555.466 449.147 555.466 447C555.466 444.853 554.613 442.793 553.095 441.275C551.577 439.757 549.517 438.904 547.37 438.904H450.212C448.065 438.904 446.006 439.757 444.487 441.275C442.969 442.793 442.116 444.853 442.116 447C442.116 449.147 442.969 451.207 444.487 452.725C446.006 454.243 448.065 455.096 450.212 455.096Z" fill="#4F46E5"/>
<path d="M589.116 506C583.041 506 578.116 501.075 578.116 495C578.116 488.925 583.041 484 589.116 484C595.191 484 600.116 488.925 600.116 495C600.116 501.075 595.191 506 589.116 506Z" fill="#3F3D56"/>
<path d="M406.791 503H546.791C548.913 503 550.948 502.157 552.448 500.657C553.948 499.157 554.791 497.122 554.791 495C554.791 492.878 553.948 490.843 552.448 489.343C550.948 487.843 548.913 487 546.791 487H406.791C404.669 487 402.634 487.843 401.134 489.343C399.634 490.843 398.791 492.878 398.791 495C398.791 497.122 399.634 499.157 401.134 500.657C402.634 502.157 404.669 503 406.791 503Z" fill="#CCCCCC"/>
<path d="M589.116 554C583.041 554 578.116 549.075 578.116 543C578.116 536.925 583.041 532 589.116 532C595.191 532 600.116 536.925 600.116 543C600.116 549.075 595.191 554 589.116 554Z" fill="#3F3D56"/>
<path d="M406.791 551H546.791C548.913 551 550.948 550.157 552.448 548.657C553.948 547.157 554.791 545.122 554.791 543C554.791 540.878 553.948 538.843 552.448 537.343C550.948 535.843 548.913 535 546.791 535H406.791C404.669 535 402.634 535.843 401.134 537.343C399.634 538.843 398.791 540.878 398.791 543C398.791 545.122 399.634 547.157 401.134 548.657C402.634 550.157 404.669 551 406.791 551Z" fill="#CCCCCC"/>
<path d="M482.212 503.096H547.37C549.517 503.096 551.577 502.243 553.095 500.725C554.613 499.207 555.466 497.147 555.466 495C555.466 492.853 554.613 490.793 553.095 489.275C551.577 487.757 549.517 486.904 547.37 486.904H482.212C480.065 486.904 478.006 487.757 476.487 489.275C474.969 490.793 474.116 492.853 474.116 495C474.116 497.147 474.969 499.207 476.487 500.725C478.006 502.243 480.065 503.096 482.212 503.096V503.096Z" fill="#4F46E5"/>
<path d="M424.212 551.096H547.37C549.517 551.096 551.577 550.243 553.095 548.725C554.613 547.207 555.466 545.147 555.466 543C555.466 540.853 554.613 538.793 553.095 537.275C551.577 535.757 549.517 534.904 547.37 534.904H424.212C422.065 534.904 420.006 535.757 418.487 537.275C416.969 538.793 416.116 540.853 416.116 543C416.116 545.147 416.969 547.207 418.487 548.725C420.006 550.243 422.065 551.096 424.212 551.096V551.096Z" fill="#4F46E5"/>
<path d="M443.86 233.673H457.604V193.059C457.603 191.866 457.129 190.722 456.285 189.879C455.441 189.035 454.298 188.56 453.104 188.559H448.36C447.167 188.56 446.023 189.035 445.18 189.879C444.336 190.722 443.862 191.866 443.86 193.059V233.673Z" fill="#3F3D56"/>
<path d="M435.528 302.786H566.907L567.379 228.74C567.384 227.596 567.159 226.463 566.718 225.407C566.277 224.352 565.628 223.396 564.81 222.596L531.806 190.45C530.241 188.92 528.143 188.056 525.953 188.04L470.716 187.535C469.463 187.527 468.224 187.794 467.087 188.318C465.949 188.842 464.94 189.609 464.131 190.565L464.126 190.571L437.89 222.746C436.364 224.621 435.53 226.964 435.528 229.381L435.528 302.786Z" fill="#3F3D56"/>
<path d="M435.528 302.786H506.13V236.425C506.13 234.403 505.409 232.448 504.097 230.909L473.422 194.945V194.945C472.624 194.009 471.633 193.257 470.517 192.742C469.4 192.226 468.185 191.96 466.955 191.961H466.923C465.687 191.965 464.468 192.238 463.349 192.762C462.231 193.286 461.24 194.047 460.446 194.994L437.519 222.288C436.234 223.82 435.529 225.755 435.528 227.755V302.786Z" fill="#4F46E5"/>
<path d="M465.477 277.298H475.691C476.354 277.297 476.99 277.033 477.458 276.565C477.927 276.096 478.191 275.461 478.191 274.798V266.233C478.191 265.571 477.927 264.935 477.458 264.466C476.99 263.998 476.354 263.734 475.691 263.733H465.477C464.814 263.734 464.178 263.998 463.71 264.466C463.241 264.935 462.977 265.571 462.977 266.233V274.798C462.977 275.461 463.241 276.096 463.71 276.565C464.178 277.033 464.814 277.297 465.477 277.298V277.298Z" fill="white"/>
<path d="M465.477 255.352H475.691C476.354 255.351 476.99 255.087 477.458 254.618C477.927 254.15 478.191 253.514 478.191 252.852V244.486C478.191 243.824 477.927 243.188 477.458 242.719C476.99 242.251 476.354 241.987 475.691 241.986H465.477C464.814 241.987 464.178 242.251 463.71 242.719C463.241 243.188 462.977 243.824 462.977 244.486V252.852C462.977 253.514 463.241 254.15 463.71 254.618C464.178 255.087 464.814 255.351 465.477 255.352V255.352Z" fill="white"/>
<path d="M528.648 273.964H538.862C539.525 273.963 540.161 273.699 540.629 273.231C541.098 272.762 541.362 272.127 541.362 271.464V262.9C541.362 262.237 541.098 261.602 540.629 261.133C540.161 260.664 539.525 260.401 538.862 260.4H528.648C527.985 260.401 527.349 260.664 526.881 261.133C526.412 261.602 526.148 262.237 526.148 262.9V271.464C526.148 272.127 526.412 272.762 526.881 273.231C527.349 273.699 527.985 273.963 528.648 273.964Z" fill="white"/>
<path d="M528.648 252.018H538.862C539.525 252.017 540.161 251.753 540.629 251.284C541.098 250.816 541.362 250.18 541.362 249.518V241.153C541.362 240.49 541.098 239.855 540.629 239.386C540.161 238.917 539.525 238.654 538.862 238.653H528.648C527.985 238.654 527.349 238.917 526.881 239.386C526.412 239.855 526.148 240.49 526.148 241.153V249.518C526.148 250.18 526.412 250.816 526.881 251.284C527.349 251.753 527.985 252.017 528.648 252.018Z" fill="white"/>
<path d="M410.102 303.652H588.805C589.07 303.652 589.325 303.547 589.512 303.359C589.7 303.172 589.805 302.918 589.805 302.652C589.805 302.387 589.7 302.133 589.512 301.945C589.325 301.758 589.07 301.652 588.805 301.652H410.102C409.837 301.652 409.582 301.758 409.395 301.945C409.207 302.133 409.102 302.387 409.102 302.652C409.102 302.918 409.207 303.172 409.395 303.359C409.582 303.547 409.837 303.652 410.102 303.652Z" fill="#3F3D56"/>
</svg>
